<?xml version="1.0" encoding="UTF-8" ?>
<!--  -->
<svg style="fill:dodgerblue;stroke:none; strokeWidth:none;"  width="50px" height="50px" viewBox="0 0 50 25" version="1.1"><g><g>
    <path d="M38.5712472,0 C31.477746,0 26.7833602,5.97073721 22.6418233,11.2397203 C19.1033932,15.7408169
     15.7620051,19.9910913 11.6923619,19.9910913 C7.4622892,19.9910913 4.86513295,15.5153512 4.86513295,12.3067436
      C4.86513295,9.33182558 7.71424943,5.00856628 12.1796403,5.00856628 C16.5125614,5.00856628 18.7698869,8.57867326 
      18.8837187,8.76165 C19.5856795,9.93112674 21.0761403,10.2991366 22.2177841,9.58230523 C23.3650858,8.86273314 
      23.7285483,7.32182035 23.0292494,6.1406936 C22.8808028,5.8905564 19.3124176,0.00034244186 12.1796403,0.00034244186
       C5.00226307,0.00034244186 0,6.48677384 0,12.307086 C0,18.310718 4.80189318,25 11.692029,25 C18.0822381,25 22.3229619,
       19.6066337 26.4232267,14.3904192 C30.2162795,9.56654302 33.7993097,5.00890872 38.5712472,5.00890872 C41.410379,5.00890872
        43.2759511,6.00054826 44.273142,8.03796628 C45.137196,9.80605814 45.1365307,11.8068122 45.1358648,12.5 C45.1358648,12.8974779 
        44.9318335,14.891036 43.9872318,16.6861977 C42.9101591,18.7311541 41.3810886,19.6830453 39.1713591,19.6830453 C34.7216114,
        19.6830453 32.3175028,16.7053866 31.4121761,15.5838814 C31.176858,15.2919407 31.007442,15.0818942 30.7811102,14.8824698
         C29.7619517,13.9836895 28.2255591,14.1043035 27.3508534,15.1548797 C26.5074352,16.1681058 26.5886483,17.6744105 27.5099517
         ,18.5862116 C27.5538864,18.6376099 27.606808,18.7051122 27.6697153,18.7835802 C28.8496352,20.2453401 32.4373256,24.6909267
          39.1703608,24.6909267 C47.353583,24.6909267 49.9999994,16.4764942 
    49.9999994,12.4657349 C50.0006648,9.91125291 49.5360193,7.66413081 48.617379,5.78536163 C47.327621,3.14692965 44.5370847,0 38.5712472,0 Z" id="Shape"></path>
  </g></g>
  </svg>